<svg width="134" height="24" viewBox="0 0 134 24" fill="none" xmlns="http://www.w3.org/2000/svg">
<path opacity="0.5" d="M7.96875 0.374764H0.891395L0.891395 18.2598H8.352C10.5748 18.2598 12.3122 17.8254 13.5386 16.9056C14.765 15.9858 15.4038 14.7594 15.4038 13.1753C15.4038 11.9489 15.0205 11.0036 14.2796 10.3393C13.5386 9.67496 12.4911 9.24061 11.1369 9.08731C12.2867 8.93401 13.1809 8.49966 13.8452 7.83536C14.484 7.17106 14.8161 6.25126 14.8161 5.10151C14.8161 3.59406 14.2029 2.41876 13.0021 1.60116C11.8012 0.783564 10.1149 0.374764 7.96875 0.374764ZM5.5926 7.50321V3.92621H8.0454C8.68415 3.92621 9.19515 4.10506 9.55285 4.41166C9.91055 4.74381 10.1149 5.17816 10.1149 5.71471C10.1149 6.27681 9.91055 6.71116 9.55285 7.01776C9.19515 7.34991 8.68415 7.50321 8.0454 7.50321H5.5926ZM5.5926 14.6828V11.0036H8.4031C9.0674 11.0036 9.60395 11.1824 9.9872 11.489C10.3704 11.8212 10.5748 12.2811 10.5748 12.8432C10.5748 13.4308 10.3704 13.8907 9.9872 14.1973C9.60395 14.5295 9.0674 14.6828 8.4031 14.6828H5.5926ZM17.453 0.374764V18.2598H21.8731V0.374764H17.453ZM27.0009 17.5955C28.074 18.1576 29.3515 18.4131 30.8079 18.4131C32.2387 18.4131 33.5162 18.1576 34.5893 17.5955C35.6624 17.0334 36.5055 16.2413 37.0932 15.2193C37.6808 14.1973 37.9874 13.022 37.9874 11.6679C37.9874 10.3393 37.6808 9.13841 37.0932 8.11641C36.5055 7.09441 35.6624 6.32791 34.5893 5.76581C33.5162 5.20371 32.2387 4.92266 30.8079 4.92266C29.3515 4.92266 28.074 5.20371 27.0009 5.76581C25.9278 6.32791 25.0847 7.09441 24.497 8.11641C23.9094 9.13841 23.6283 10.3393 23.6283 11.6679C23.6283 13.022 23.9094 14.1973 24.497 15.2193C25.0847 16.2413 25.9278 17.0334 27.0009 17.5955ZM32.7752 14.0185C32.2898 14.6061 31.6255 14.8872 30.8079 14.8872C29.9647 14.8872 29.3004 14.6061 28.8405 14.0185C28.3551 13.4308 28.1251 12.6388 28.1251 11.6679C28.1251 10.697 28.3551 9.93047 28.8405 9.34282C29.3004 8.75516 29.9647 8.44857 30.8079 8.44857C31.6255 8.44857 32.2898 8.75516 32.7752 9.34282C33.2351 9.93047 33.4906 10.697 33.4906 11.6679C33.4906 12.6388 33.2351 13.4308 32.7752 14.0185ZM42.5954 17.5955C43.6685 18.1576 44.946 18.4131 46.4023 18.4131C47.8331 18.4131 49.1106 18.1576 50.1837 17.5955C51.2568 17.0334 52.1 16.2413 52.6876 15.2193C53.2753 14.1973 53.5819 13.022 53.5819 11.6679C53.5819 10.3393 53.2753 9.13841 52.6876 8.11641C52.1 7.09441 51.2568 6.32791 50.1837 5.76581C49.1106 5.20371 47.8331 4.92266 46.4023 4.92266C44.946 4.92266 43.6685 5.20371 42.5954 5.76581C41.5223 6.32791 40.6791 7.09441 40.0915 8.11641C39.5038 9.13841 39.2228 10.3393 39.2228 11.6679C39.2228 13.022 39.5038 14.1973 40.0915 15.2193C40.6791 16.2413 41.5223 17.0334 42.5954 17.5955ZM48.3697 14.0185C47.8842 14.6061 47.2199 14.8872 46.4023 14.8872C45.5592 14.8872 44.8949 14.6061 44.435 14.0185C43.9495 13.4308 43.7196 12.6388 43.7196 11.6679C43.7196 10.697 43.9495 9.93047 44.435 9.34282C44.8949 8.75516 45.5592 8.44857 46.4023 8.44857C47.2199 8.44857 47.8842 8.75516 48.3697 9.34282C48.8296 9.93047 49.0851 10.697 49.0851 11.6679C49.0851 12.6388 48.8296 13.4308 48.3697 14.0185ZM75.2062 6.35346C74.3375 5.40811 73.2133 4.92266 71.8336 4.92266C70.8627 4.92266 69.994 5.10151 69.2275 5.45921C68.461 5.81691 67.8222 6.35346 67.3368 7.01776C66.5958 5.63806 65.3183 4.92266 63.5043 4.92266C62.5845 4.94821 61.7924 5.10151 61.1792 5.38256C60.566 5.68916 60.0295 6.09796 59.5696 6.66006L59.2374 5.07596H55.3538V18.2853H59.774V10.9525C59.774 10.1604 59.9528 9.54721 60.3361 9.11286C60.7193 8.67851 61.2303 8.44857 61.8946 8.44857C62.5589 8.44857 63.0188 8.65296 63.2999 9.06176C63.5809 9.47056 63.7342 10.1093 63.7342 10.9525V18.2853H68.1544V10.9525C68.1544 10.1604 68.3332 9.54721 68.742 9.11286C69.1253 8.67851 69.6363 8.44857 70.275 8.44857C70.9138 8.44857 71.3737 8.67851 71.6803 9.08731C71.9613 9.49611 72.1146 10.1349 72.1146 10.9525V18.2853H76.5348V11.208C76.5348 8.90846 76.0749 7.29881 75.2062 6.35346ZM89.7743 5.74026C88.8545 5.20371 87.8325 4.92266 86.7083 4.92266C85.1753 4.92266 83.9233 5.45921 83.0035 6.53231V0.374764H78.5834V18.2598H82.467L82.8502 16.5479C83.7956 17.7999 85.0731 18.4131 86.7083 18.4131C87.858 18.4131 88.88 18.132 89.7998 17.5699C90.6941 17.0078 91.4095 16.2158 91.9205 15.1938C92.4315 14.1718 92.687 12.9709 92.687 11.6423C92.687 10.3137 92.4315 9.11286 91.9205 8.09086C91.4095 7.06886 90.6941 6.30236 89.7743 5.74026ZM87.4748 14.0185C86.9893 14.6317 86.3506 14.9127 85.5585 14.9127C84.7409 14.9127 84.1022 14.6317 83.6423 14.0185C83.1824 13.4308 82.9524 12.6388 82.9524 11.6679C82.9524 10.697 83.1824 9.93047 83.6423 9.31726C84.1022 8.72961 84.7409 8.42301 85.5585 8.42301C86.3506 8.42301 86.9893 8.72961 87.4748 9.31726C87.9347 9.93047 88.1902 10.697 88.1902 11.6679C88.1902 12.6388 87.9347 13.4308 87.4748 14.0185ZM94.7589 8.11641C94.1968 9.13841 93.9158 10.3393 93.9158 11.719C93.9158 13.0987 94.1968 14.274 94.7845 15.2704C95.3721 16.2924 96.2408 17.0589 97.365 17.5955C98.4892 18.1576 99.8178 18.4131 101.376 18.4131C102.552 18.4131 103.599 18.2087 104.519 17.7999C105.439 17.3911 106.154 16.829 106.691 16.1136C107.227 15.3982 107.559 14.6317 107.687 13.763H103.344C103.088 14.7339 102.322 15.2193 101.07 15.2193C99.5879 15.2193 98.7192 14.4017 98.5148 12.7665V12.7154H107.713C107.789 12.3066 107.841 11.8467 107.841 11.2846C107.841 10.0327 107.534 8.93401 106.946 7.96311C106.333 6.99221 105.515 6.25126 104.442 5.71471C103.369 5.20371 102.143 4.92266 100.763 4.92266C99.3835 4.92266 98.1826 5.20371 97.1606 5.76581C96.1386 6.32791 95.321 7.09441 94.7589 8.11641ZM103.471 10.0071H98.5659C98.6681 9.39392 98.9236 8.90846 99.3324 8.57631C99.7412 8.24416 100.303 8.06531 100.993 8.06531C101.657 8.06531 102.194 8.24416 102.628 8.57631C103.063 8.90846 103.344 9.39392 103.471 10.0071ZM118.361 5.07596H117.723C116.803 5.07596 116.036 5.25481 115.474 5.56141C114.887 5.89356 114.401 6.37901 114.018 7.01776L113.66 5.07596H109.598V18.2598H114.018V11.9234C114.018 9.98157 114.912 8.98512 116.701 8.98512H118.361V5.07596ZM133.095 5.07596H129.186L128.854 6.73671C127.832 5.51031 126.554 4.87156 124.97 4.87156C123.821 4.87156 122.799 5.15261 121.879 5.68916C120.959 6.25126 120.269 7.01776 119.758 8.01421C119.247 9.01066 118.992 10.1604 118.992 11.4635C118.992 12.7665 119.247 13.9163 119.758 14.9127C120.269 15.9092 120.959 16.6757 121.879 17.2378C122.799 17.7999 123.821 18.0554 124.97 18.0554C126.529 18.0554 127.806 17.5444 128.777 16.4713V17.851C128.777 18.6686 128.522 19.2818 128.062 19.6906C127.576 20.1249 126.912 20.3293 126.095 20.3293C124.766 20.3293 123.948 19.7928 123.667 18.6686H119.222C119.247 20.2271 119.86 21.428 121.036 22.2711C122.211 23.1143 123.795 23.5231 125.762 23.5231C128.266 23.5231 130.131 23.0121 131.307 21.9901C132.482 20.9681 133.095 19.6395 133.095 18.0043V5.07596ZM128.036 13.7885C127.576 14.3506 126.938 14.6317 126.12 14.6317C125.303 14.6317 124.664 14.3506 124.204 13.7885C123.718 13.2264 123.488 12.4599 123.488 11.5146C123.488 10.5948 123.718 9.82826 124.204 9.24061C124.664 8.67851 125.303 8.37191 126.12 8.37191C126.938 8.37191 127.576 8.67851 128.036 9.24061C128.496 9.82826 128.726 10.5948 128.726 11.5146C128.726 12.4599 128.496 13.2264 128.036 13.7885Z" fill="black"/>
</svg>
