<svg width="80" height="21" viewBox="0 0 80 21" fill="none" xmlns="http://www.w3.org/2000/svg">
<path opacity="0.5" d="M0.485874 20.2598V18.5735C0.877641 18.5564 1.20127 18.5053 1.45677 18.4202C1.72931 18.335 1.93371 18.1391 2.06997 17.8325C2.22327 17.5259 2.29992 17.0319 2.29992 16.3506V6.56496C2.29992 6.10506 2.30844 5.6622 2.32547 5.23636C2.35954 4.81053 2.38509 4.4869 2.40212 4.26546C2.12959 4.2825 1.78892 4.29953 1.38012 4.31656C0.971324 4.31656 0.673241 4.32508 0.485874 4.34211V2.37476H13.2609L13.4142 7.33146H11.7279C11.7279 6.39463 11.5661 5.68775 11.2424 5.21081C10.9188 4.73388 10.5185 4.41876 10.0416 4.26546C9.56464 4.09513 9.09623 4.01848 8.63632 4.03551L7.71652 4.06106C7.35882 4.06106 7.05222 4.11216 6.79672 4.21436C6.54122 4.29953 6.34534 4.50393 6.20907 4.82756C6.07281 5.13416 6.00467 5.61961 6.00467 6.28391L6.00467 10.7296H8.63632L8.53412 8.53231H10.5015V14.741H8.81517C8.81517 14.0256 8.70446 13.506 8.48302 13.1824C8.26159 12.8588 7.95499 12.6629 7.56322 12.5948C7.18849 12.5096 6.77117 12.4755 6.31128 12.4926H6.00467V16.0696C6.00467 16.5295 5.99616 16.9723 5.97912 17.3982C5.96209 17.824 5.93654 18.1476 5.90247 18.3691C6.08984 18.352 6.33682 18.3435 6.64342 18.3435C6.95002 18.3265 7.24811 18.318 7.53767 18.318C7.84427 18.3009 8.05719 18.2924 8.17642 18.2924V20.2598H0.485874ZM20.0392 20.6686C18.8128 20.6686 17.7056 20.4045 16.7177 19.8765C15.7298 19.3485 14.9462 18.599 14.3671 17.6281C13.805 16.6402 13.524 15.4819 13.524 14.1533C13.524 12.7395 13.8135 11.5046 14.3927 10.4486C14.9888 9.37546 15.7724 8.54935 16.7433 7.97021C17.7312 7.37405 18.8043 7.07596 19.9626 7.07596C21.189 7.07596 22.2876 7.33998 23.2585 7.86801C24.2294 8.39605 24.9959 9.15403 25.558 10.142C26.1201 11.1129 26.4012 12.2796 26.4012 13.6423C26.4012 15.0731 26.1286 16.3165 25.5836 17.3726C25.0385 18.4287 24.289 19.2463 23.3352 19.8254C22.3813 20.3875 21.2826 20.6686 20.0392 20.6686ZM20.1414 18.8545C20.8227 18.8375 21.3337 18.599 21.6744 18.1391C22.0321 17.6792 22.2791 17.1001 22.4154 16.4017C22.5516 15.7033 22.6198 14.9965 22.6198 14.2811C22.6198 13.6508 22.5687 13.0121 22.4665 12.3648C22.3813 11.7175 22.2365 11.1299 22.0321 10.6019C21.8277 10.0738 21.5467 9.648 21.189 9.32436C20.8483 9.00073 20.4225 8.84743 19.9115 8.86446C19.2472 8.8815 18.7191 9.11996 18.3274 9.57986C17.9526 10.0398 17.6801 10.6189 17.5098 11.3173C17.3565 11.9986 17.2798 12.714 17.2798 13.4635C17.2798 14.3322 17.3735 15.1838 17.5609 16.0185C17.7482 16.8531 18.0463 17.5429 18.4551 18.088C18.8809 18.616 19.443 18.8715 20.1414 18.8545ZM28.2511 18.599C28.7281 18.599 29.0687 18.5053 29.2731 18.318C29.4775 18.1306 29.6053 17.8666 29.6564 17.5259C29.7245 17.1682 29.7586 16.7679 29.7586 16.3251V12.0327C29.7586 11.7261 29.7671 11.3854 29.7841 11.0107C29.8012 10.6189 29.8267 10.2356 29.8608 9.86092C29.5883 9.87795 29.2646 9.89498 28.8899 9.91201C28.5322 9.91201 28.2597 9.92053 28.0723 9.93756V7.99576H29.0943C29.7586 7.99576 30.3633 7.9106 30.9083 7.74026C31.4704 7.56993 31.8367 7.3996 32.007 7.22926H33.2589C33.293 7.3996 33.3186 7.72323 33.3356 8.20016C33.3526 8.66006 33.3611 9.06886 33.3611 9.42656C33.821 8.86446 34.2554 8.41308 34.6642 8.07241C35.073 7.73175 35.4733 7.48476 35.865 7.33146C36.2738 7.16113 36.6826 7.07596 37.0914 7.07596C37.6876 7.07596 38.2071 7.2463 38.65 7.58696C39.0929 7.9106 39.3143 8.44715 39.3143 9.19661C39.3143 9.45211 39.2547 9.72465 39.1354 10.0142C39.0162 10.2867 38.8288 10.5167 38.5733 10.7041C38.3178 10.8914 37.9687 10.9851 37.5258 10.9851C37.1851 10.9851 36.8359 10.8829 36.4782 10.6785C36.1205 10.4741 35.9161 10.0823 35.865 9.50321C35.5244 9.50321 35.1837 9.648 34.843 9.93756C34.5024 10.2101 34.1958 10.5422 33.9232 10.934C33.6677 11.3087 33.4889 11.6579 33.3867 11.9816V16.1462C33.3867 16.3847 33.3782 16.7253 33.3611 17.1682C33.3441 17.594 33.3186 18.0028 33.2845 18.3946C33.557 18.3605 33.8551 18.3435 34.1787 18.3435C34.5194 18.3265 34.7749 18.318 34.9452 18.318V20.2598H28.2511V18.599ZM40.9894 5.82402C40.9894 5.51741 40.9894 5.16823 40.9894 4.77646C41.0064 4.36766 41.032 3.9759 41.0661 3.60116C40.7935 3.6182 40.4699 3.63523 40.0952 3.65226C39.7375 3.65226 39.4649 3.66078 39.2776 3.67781V1.73601C40.0781 1.73601 40.7424 1.69343 41.2705 1.60826C41.8155 1.5231 42.2414 1.4209 42.548 1.30166C42.8716 1.18243 43.093 1.07171 43.2123 0.969513H44.592V8.45566C45.1711 7.94466 45.7587 7.58696 46.3549 7.38256C46.9511 7.17816 47.5132 7.07596 48.0412 7.07596C49.0632 7.07596 49.9575 7.33998 50.724 7.86801C51.5075 8.39605 52.1122 9.14551 52.538 10.1164C52.9809 11.0873 53.2023 12.2285 53.2023 13.5401C53.2023 14.9028 52.9468 16.1292 52.4358 17.2193C51.9418 18.2924 51.235 19.1356 50.3152 19.7488C49.3954 20.362 48.2882 20.6686 46.9937 20.6686C46.5338 20.6686 45.9461 20.5664 45.2307 20.362C44.5323 20.1746 43.8851 19.7658 43.2889 19.1356L42.5224 20.2598H40.9894V5.82402ZM44.592 16.4273C44.592 17.0064 44.6856 17.4663 44.873 17.807C45.0604 18.1476 45.2988 18.3946 45.5884 18.5479C45.878 18.7012 46.1675 18.7864 46.4571 18.8034C47.2236 18.8204 47.8198 18.599 48.2456 18.1391C48.6885 17.6792 48.9951 17.0745 49.1654 16.3251C49.3528 15.5586 49.4465 14.758 49.4465 13.9234C49.4465 13.1398 49.3528 12.3989 49.1654 11.7005C48.978 11.0021 48.68 10.44 48.2712 10.0142C47.8624 9.57135 47.3258 9.35843 46.6615 9.37546C46.2357 9.3925 45.8439 9.50321 45.4862 9.70761C45.1285 9.89498 44.8304 10.1505 44.592 10.4741V16.4273ZM61.129 20.6686C59.8856 20.6686 58.7869 20.396 57.8331 19.851C56.8792 19.2889 56.1382 18.5053 55.6102 17.5004C55.0822 16.4784 54.8182 15.2775 54.8182 13.8978C54.8182 12.7055 55.0822 11.5898 55.6102 10.5508C56.1382 9.51173 56.8792 8.6771 57.8331 8.04686C58.804 7.3996 59.9282 7.07596 61.2057 7.07596C61.9211 7.07596 62.6194 7.17816 63.3008 7.38256C63.9821 7.56993 64.5953 7.90208 65.1404 8.37901C65.7025 8.85595 66.1453 9.50321 66.469 10.3208C66.8096 11.1384 66.9714 12.1604 66.9544 13.3868L58.574 13.5401C58.574 14.4599 58.6847 15.286 58.9062 16.0185C59.1446 16.7509 59.5279 17.33 60.0559 17.7559C60.5839 18.1817 61.2908 18.3946 62.1766 18.3946C62.5172 18.3946 62.9005 18.335 63.3263 18.2158C63.7692 18.0965 64.212 17.9006 64.6549 17.6281C65.1148 17.3385 65.5406 16.9553 65.9324 16.4784L67.0822 17.5515C66.469 18.4202 65.8132 19.0845 65.1148 19.5444C64.4164 19.9872 63.7181 20.2853 63.0197 20.4386C62.3384 20.5919 61.7081 20.6686 61.129 20.6686ZM58.7273 11.7516L63.4285 11.7516C63.4115 11.0362 63.3093 10.4741 63.1219 10.0653C62.9516 9.63948 62.7131 9.33288 62.4065 9.14551C62.0999 8.95815 61.7422 8.86446 61.3334 8.86446C60.5839 8.86446 59.9963 9.137 59.5705 9.68206C59.1446 10.2101 58.8636 10.8999 58.7273 11.7516ZM74.6983 20.6686C73.9658 20.6686 73.2504 20.5749 72.5521 20.3875C71.8537 20.2001 71.3086 19.9617 70.9169 19.6721L70.968 20.4386H69.0262L68.924 16.044H70.5847C70.6358 16.555 70.8402 17.0234 71.1979 17.4493C71.5556 17.8751 72.024 18.2158 72.6032 18.4713C73.1823 18.7097 73.8296 18.829 74.545 18.829C74.8345 18.829 75.1071 18.7864 75.3626 18.7012C75.6351 18.616 75.8565 18.4798 76.0269 18.2924C76.2142 18.088 76.3079 17.841 76.3079 17.5515C76.3079 17.2278 76.1887 16.9638 75.9502 16.7594C75.7288 16.555 75.3966 16.3591 74.9538 16.1718C74.5279 15.9844 73.9914 15.7715 73.3441 15.533C72.8161 15.3286 72.2795 15.1157 71.7345 14.8943C71.2064 14.6728 70.7125 14.4088 70.2526 14.1022C69.8097 13.7786 69.452 13.3868 69.1795 12.9269C68.9069 12.45 68.7707 11.8708 68.7707 11.1895C68.7707 10.6955 68.8643 10.2101 69.0517 9.73316C69.2391 9.2392 69.5286 8.79633 69.9204 8.40456C70.3122 7.99576 70.8061 7.67213 71.4023 7.43366C72.0155 7.1952 72.7394 7.07596 73.5741 7.07596C74.034 7.07596 74.5535 7.15261 75.1326 7.30591C75.7288 7.44218 76.2313 7.6551 76.6401 7.94466V7.20371H78.5819V11.7261H76.9211C76.8189 11.1299 76.606 10.6189 76.2824 10.1931C75.9758 9.76723 75.5755 9.4436 75.0815 9.22216C74.5875 8.9837 74.034 8.86446 73.4208 8.86446C72.9949 8.86446 72.6032 8.96666 72.2455 9.17106C71.9048 9.37546 71.7345 9.72465 71.7345 10.2186C71.7345 10.6104 71.8707 10.9255 72.1433 11.164C72.4158 11.3854 72.7905 11.5728 73.2675 11.7261C73.7444 11.8794 74.2724 12.0582 74.8516 12.2626C75.7203 12.5522 76.4868 12.8928 77.1511 13.2846C77.8324 13.6764 78.3689 14.1533 78.7607 14.7154C79.1525 15.2605 79.3484 15.9333 79.3484 16.7339C79.3484 17.6196 79.1269 18.352 78.6841 18.9312C78.2412 19.5103 77.6621 19.9446 76.9467 20.2342C76.2483 20.5238 75.4988 20.6686 74.6983 20.6686Z" fill="black"/>
</svg>
